<svg width="569" height="482" viewBox="0 0 569 482" fill="none" xmlns="http://www.w3.org/2000/svg">
<path d="M251.784 181.083L261.885 212.513L218.663 168.739L208.561 137.308L251.784 181.083Z" fill="#343942"/>
<path d="M262.084 213.127C261.857 213.201 261.602 213.145 261.426 212.966L218.208 169.19C218.137 169.115 218.084 169.03 218.052 168.932L207.951 137.501C207.859 137.218 207.974 136.908 208.232 136.753C208.483 136.594 208.815 136.635 209.023 136.85L252.243 180.631C252.313 180.705 252.367 180.791 252.399 180.888L262.5 212.319C262.592 212.603 262.477 212.912 262.219 213.068C262.177 213.097 262.132 213.117 262.086 213.132L262.084 213.127ZM219.232 168.39L260.444 210.131L251.222 181.424L210.008 139.679L219.232 168.39Z" fill="#343942"/>
<path d="M347.262 164.609L357.363 196.04L261.885 212.513L251.784 181.083L347.262 164.609Z" fill="#F2BD2A"/>
<path d="M357.562 196.653C357.535 196.662 357.502 196.673 357.471 196.673L261.993 213.146C261.677 213.202 261.37 213.014 261.27 212.707L251.17 181.281C251.113 181.105 251.136 180.907 251.233 180.747C251.33 180.587 251.501 180.481 251.674 180.445L347.157 163.97C347.474 163.919 347.78 164.102 347.88 164.408L357.981 195.839C358.039 196.016 358.014 196.209 357.918 196.373C357.839 196.507 357.711 196.605 357.567 196.652L357.562 196.653ZM262.325 211.78L356.524 195.526L346.824 165.332L252.625 181.585L262.328 211.773L262.325 211.78Z" fill="#343942"/>
<path d="M399.544 104.347L409.646 135.778L357.364 196.039L347.262 164.609L399.544 104.347Z" fill="#343942"/>
<path d="M357.563 196.653C357.46 196.686 357.344 196.693 357.235 196.672C357.004 196.624 356.821 196.457 356.749 196.234L346.647 164.803C346.578 164.589 346.624 164.353 346.774 164.182L399.051 103.922C399.206 103.749 399.441 103.667 399.666 103.712C399.896 103.756 400.08 103.927 400.151 104.145L410.253 135.576C410.322 135.79 410.275 136.026 410.126 136.198L357.842 196.454C357.764 196.546 357.666 196.609 357.555 196.645L357.563 196.653ZM347.988 164.758L357.629 194.752L408.921 135.634L399.28 105.64L347.988 164.758Z" fill="#343942"/>
<path d="M356.324 60.5821L399.544 104.347L347.262 164.608L251.784 181.082L208.561 137.307L260.835 77.0537L356.324 60.5821Z" fill="white"/>
<path d="M347.461 165.222C347.433 165.231 347.401 165.242 347.371 165.246L251.888 181.721C251.679 181.758 251.467 181.688 251.321 181.541L208.097 137.762C207.86 137.52 207.849 137.139 208.069 136.882L260.344 76.6333C260.441 76.5198 260.571 76.4466 260.721 76.4185L356.215 59.9454C356.424 59.9084 356.636 59.9781 356.782 60.126L400.002 103.891C400.239 104.132 400.25 104.514 400.03 104.77L347.753 165.03C347.673 165.117 347.577 165.185 347.466 165.221L347.461 165.222ZM252.001 180.39L346.924 164.01L398.66 104.378L356.098 61.2777L261.167 77.6502L209.439 137.275L252.006 180.389L252.001 180.39Z" fill="#343942"/>
<path d="M349.316 68.6607L386.744 106.56L341.469 158.739L258.788 173.006L221.361 135.096L266.628 82.9248L349.316 68.6607Z" fill="#F2BD2A"/>
<path d="M341.668 159.352C341.64 159.361 341.608 159.371 341.578 159.376L258.897 173.643C258.688 173.68 258.475 173.61 258.33 173.462L220.903 135.552C220.666 135.311 220.655 134.929 220.875 134.673L266.142 82.5021C266.24 82.3932 266.373 82.3139 266.519 82.2872L349.211 68.0216C349.42 67.9847 349.632 68.0543 349.778 68.2022L387.202 106.103C387.439 106.344 387.45 106.726 387.23 106.982L341.962 159.164C341.882 159.252 341.786 159.319 341.674 159.355L341.668 159.352ZM259.01 172.312L341.132 158.144L385.86 106.59L349.094 69.3539L266.96 83.5205L222.236 135.069L259.005 172.314L259.01 172.312Z" fill="#343942"/>
<path d="M390.486 208.387L400.588 239.818L357.363 196.039L347.262 164.608L390.486 208.387Z" fill="#F2BD2A"/>
<path d="M400.787 240.432C400.559 240.505 400.304 240.449 400.128 240.27L356.904 196.491C356.834 196.417 356.78 196.331 356.748 196.234L346.647 164.803C346.555 164.519 346.67 164.21 346.928 164.054C347.178 163.891 347.507 163.938 347.72 164.152L390.939 207.932C391.01 208.007 391.063 208.092 391.095 208.19L401.196 239.621C401.288 239.904 401.173 240.214 400.915 240.369C400.873 240.398 400.828 240.418 400.782 240.433L400.787 240.432ZM357.935 195.695L399.147 237.435L389.922 208.724L348.71 166.984L357.935 195.695Z" fill="#343942"/>
<path d="M485.964 191.915L496.064 223.341L400.588 239.819L390.486 208.388L485.964 191.915Z" fill="#F2BD2A"/>
<path d="M496.265 223.959C496.237 223.968 496.204 223.979 496.174 223.979L400.691 240.453C400.375 240.509 400.063 240.323 399.968 240.015L389.867 208.584C389.809 208.408 389.834 208.215 389.929 208.05C390.028 207.895 390.194 207.774 390.372 207.752L485.855 191.278C486.171 191.221 486.483 191.408 486.578 191.716L496.679 223.147C496.736 223.323 496.712 223.516 496.616 223.681C496.536 223.815 496.409 223.912 496.265 223.959ZM401.028 239.086L495.226 222.832L485.523 192.644L391.324 208.897L401.028 239.086Z" fill="#343942"/>
<path d="M538.246 131.653L548.348 163.084L496.064 223.34L485.964 191.914L538.246 131.653Z" fill="#F2BD2A"/>
<path d="M496.265 223.959C496.163 223.992 496.047 223.999 495.937 223.978C495.706 223.929 495.523 223.763 495.451 223.54L485.349 192.109C485.28 191.895 485.327 191.659 485.478 191.492L537.76 131.231C537.912 131.053 538.149 130.976 538.375 131.021C538.606 131.069 538.789 131.236 538.861 131.459L548.962 162.89C549.032 163.103 548.985 163.339 548.834 163.507L496.557 223.766C496.479 223.858 496.381 223.921 496.269 223.957L496.265 223.959ZM486.691 192.064L496.331 222.057L547.621 162.935L537.981 132.941L486.691 192.064Z" fill="#343942"/>
<path d="M495.026 87.8897L538.246 131.655L485.964 191.916L390.486 208.389L347.261 164.61L399.537 104.361L495.026 87.8897Z" fill="white"/>
<path d="M486.163 192.529C486.135 192.538 486.103 192.548 486.072 192.548L390.589 209.023C390.38 209.06 390.169 208.995 390.022 208.842L346.802 165.062C346.565 164.82 346.554 164.439 346.774 164.182L399.045 103.935C399.142 103.821 399.278 103.751 399.422 103.72L494.916 87.2469C495.125 87.2099 495.337 87.2796 495.483 87.4275L538.702 131.193C538.94 131.434 538.951 131.816 538.729 132.067L486.448 192.328C486.368 192.416 486.272 192.483 486.16 192.519L486.163 192.529ZM390.703 207.697L485.628 191.321L537.367 131.682L494.805 88.5823L399.869 104.956L348.141 164.581L390.708 207.695L390.703 207.697Z" fill="#343942"/>
<path d="M488.023 95.9642L525.445 133.86L480.172 186.044L397.495 200.309L360.068 162.399L405.329 110.225L488.023 95.9642Z" fill="#F2BD2A"/>
<path d="M480.371 186.657C480.343 186.666 480.31 186.677 480.279 186.676L397.598 200.944C397.389 200.981 397.178 200.915 397.031 200.763L359.604 162.853C359.367 162.611 359.356 162.23 359.576 161.974L404.843 109.802C404.939 109.689 405.071 109.62 405.22 109.588L487.907 95.3236C488.116 95.2866 488.329 95.3563 488.474 95.5042L525.896 133.4C526.134 133.642 526.145 134.023 525.924 134.275L480.655 186.457C480.575 186.544 480.479 186.611 480.368 186.648L480.371 186.657ZM397.717 199.616L479.838 185.443L524.566 133.889L487.801 96.6575L405.672 110.823L360.947 162.371L397.717 199.616Z" fill="#343942"/>
<path d="M199.502 241.343L209.603 272.774L114.121 289.249L104.024 257.817L199.502 241.343Z" fill="#F2BD2A"/>
<path d="M209.803 273.387C209.775 273.396 209.742 273.407 209.711 273.407L114.23 289.886C113.914 289.942 113.607 289.755 113.507 289.448L103.406 258.017C103.348 257.841 103.373 257.648 103.469 257.483C103.567 257.328 103.735 257.212 103.911 257.185L199.39 240.712C199.705 240.656 200.013 240.844 200.112 241.15L210.214 272.581C210.271 272.758 210.246 272.951 210.151 273.115C210.071 273.249 209.943 273.347 209.799 273.394L209.803 273.387ZM114.567 288.519L208.766 272.265L199.062 242.077L104.863 258.33L114.562 288.52L114.567 288.519Z" fill="#343942"/>
<path d="M251.784 181.083L261.886 212.513L209.604 272.775L199.502 241.344L251.784 181.083Z" fill="#343942"/>
<path d="M209.803 273.388C209.7 273.421 209.584 273.428 209.475 273.407C209.243 273.358 209.061 273.192 208.989 272.969L198.887 241.538C198.818 241.324 198.864 241.088 199.016 240.921L251.297 180.66C251.452 180.486 251.687 180.405 251.912 180.45C252.142 180.493 252.326 180.665 252.397 180.883L262.499 212.314C262.568 212.528 262.521 212.764 262.37 212.931L210.088 273.192C210.01 273.284 209.913 273.347 209.801 273.383L209.803 273.388ZM200.228 241.493L209.869 271.486L261.16 212.368L251.52 182.375L200.228 241.493Z" fill="#343942"/>
<path d="M242.726 285.122L252.826 316.549L209.603 272.774L199.502 241.343L242.726 285.122Z" fill="#F2BD2A"/>
<path d="M253.025 317.162C252.797 317.236 252.543 317.18 252.367 317.001L209.143 273.222C209.072 273.147 209.019 273.062 208.987 272.964L198.885 241.533C198.793 241.25 198.909 240.94 199.166 240.785C199.412 240.623 199.75 240.667 199.958 240.882L243.182 284.661C243.253 284.736 243.306 284.821 243.338 284.919L253.439 316.35C253.531 316.633 253.416 316.943 253.158 317.098C253.116 317.127 253.072 317.147 253.025 317.162ZM210.173 272.425L251.385 314.166L242.161 285.455L200.949 243.714L210.173 272.425Z" fill="#343942"/>
<path d="M338.203 268.645L348.304 300.076L252.826 316.549L242.726 285.123L338.203 268.645Z" fill="#F2BD2A"/>
<path d="M348.503 300.689C348.475 300.698 348.443 300.709 348.412 300.708L252.929 317.183C252.613 317.239 252.301 317.053 252.206 316.745L242.105 285.314C242.047 285.137 242.072 284.944 242.168 284.78C242.266 284.625 242.434 284.509 242.61 284.482L338.093 268.007C338.409 267.951 338.721 268.138 338.816 268.446L348.917 299.877C348.975 300.053 348.95 300.246 348.854 300.411C348.775 300.544 348.647 300.642 348.503 300.689ZM253.266 315.815L347.465 299.562L337.761 269.374L243.562 285.627L253.266 315.815Z" fill="#343942"/>
<path d="M390.486 208.388L400.588 239.819L348.304 300.076L338.203 268.645L390.486 208.388Z" fill="#343942"/>
<path d="M348.503 300.689C348.401 300.722 348.285 300.729 348.176 300.708C347.944 300.66 347.762 300.493 347.689 300.27L337.588 268.839C337.518 268.626 337.565 268.39 337.716 268.222L389.994 207.963C390.146 207.785 390.383 207.708 390.609 207.753C390.84 207.801 391.022 207.968 391.095 208.191L401.196 239.622C401.266 239.835 401.219 240.071 401.068 240.239L348.791 300.498C348.713 300.59 348.615 300.653 348.503 300.689ZM338.929 268.794L348.569 298.788L399.861 239.67L390.221 209.676L338.929 268.794Z" fill="#343942"/>
<path d="M347.266 164.622L390.486 208.387L338.203 268.644L242.726 285.121L199.502 241.342L251.776 181.089L347.266 164.622Z" fill="white"/>
<path d="M338.402 269.258C338.374 269.267 338.341 269.277 338.311 269.277L242.828 285.752C242.619 285.789 242.408 285.724 242.261 285.571L199.036 241.792C198.799 241.551 198.788 241.169 199.009 240.917L251.284 180.664C251.38 180.55 251.512 180.482 251.661 180.449L347.154 163.976C347.363 163.939 347.576 164.009 347.721 164.156L390.936 207.923C391.174 208.164 391.185 208.546 390.963 208.798L338.686 269.057C338.607 269.145 338.51 269.212 338.399 269.248L338.402 269.258ZM242.942 284.425L337.866 268.05L389.602 208.418L347.04 165.317L252.105 181.692L200.372 241.318L242.939 284.432L242.942 284.425Z" fill="#343942"/>
<path d="M340.261 172.695L377.685 210.596L332.411 262.779L249.733 277.04L212.308 239.135L257.569 186.961L340.261 172.695Z" fill="#F2BD2A"/>
<path d="M332.611 263.393C332.583 263.402 332.55 263.412 332.519 263.412L249.838 277.679C249.629 277.716 249.416 277.646 249.271 277.498L211.846 239.593C211.608 239.352 211.597 238.97 211.819 238.718L257.079 186.544C257.176 186.431 257.308 186.362 257.457 186.329L340.149 172.064C340.358 172.027 340.57 172.097 340.716 172.244L378.139 210.145C378.377 210.387 378.388 210.768 378.166 211.02L332.898 263.202C332.818 263.289 332.722 263.356 332.611 263.393ZM249.957 276.351L332.079 262.183L376.807 210.629L340.041 173.393L257.907 187.56L213.187 239.106L249.957 276.351Z" fill="#343942"/>
<path d="M94.9611 361.843L105.058 393.275L61.8385 349.495L51.737 318.064L94.9611 361.843Z" fill="#343942"/>
<path d="M105.262 393.887C105.034 393.961 104.78 393.905 104.603 393.726L61.3808 349.952C61.3103 349.877 61.2569 349.791 61.2253 349.694L51.1237 318.263C51.0317 317.98 51.147 317.67 51.4047 317.515C51.6515 317.357 51.988 317.397 52.1964 317.612L95.4206 361.391C95.491 361.466 95.5444 361.551 95.5761 361.649L105.678 393.079C105.77 393.363 105.654 393.672 105.397 393.828C105.355 393.857 105.31 393.877 105.263 393.892L105.262 393.887ZM62.4053 349.152L103.617 390.892L94.3931 362.181L53.1826 320.445L62.4068 349.156L62.4053 349.152Z" fill="#343942"/>
<path d="M190.44 345.371L200.541 376.801L105.059 393.276L94.9617 361.844L190.44 345.371Z" fill="#F2BD2A"/>
<path d="M200.74 377.414C200.712 377.423 200.68 377.434 200.649 377.434L105.171 393.907C104.855 393.963 104.543 393.777 104.448 393.469L94.3467 362.038C94.2894 361.861 94.3141 361.668 94.4096 361.504C94.5067 361.344 94.676 361.233 94.8523 361.206L190.335 344.731C190.651 344.675 190.963 344.862 191.058 345.17L201.159 376.601C201.217 376.777 201.192 376.97 201.096 377.135C201.016 377.268 200.889 377.366 200.745 377.413L200.74 377.414ZM105.503 392.541L199.702 376.288L190.003 346.098L95.8041 362.351L105.508 392.539L105.503 392.541Z" fill="#343942"/>
<path d="M242.721 285.108L252.823 316.539L200.541 376.8L190.439 345.369L242.721 285.108Z" fill="#343942"/>
<path d="M200.74 377.414C200.638 377.447 200.522 377.454 200.412 377.433C200.181 377.385 199.999 377.218 199.926 376.995L189.825 345.564C189.755 345.35 189.802 345.114 189.953 344.947L242.23 284.687C242.383 284.509 242.62 284.432 242.845 284.477C243.077 284.526 243.259 284.692 243.332 284.915L253.433 316.346C253.503 316.56 253.456 316.796 253.305 316.963L201.023 377.224C200.945 377.316 200.847 377.379 200.735 377.415L200.74 377.414ZM191.166 345.519L200.806 375.512L252.096 316.39L242.456 286.396L191.166 345.519Z" fill="#343942"/>
<path d="M199.502 241.344L242.721 285.109L190.44 345.37L94.9614 361.843L51.7372 318.064L104.008 257.817L199.502 241.344Z" fill="white"/>
<path d="M190.639 345.983C190.611 345.992 190.578 346.003 190.547 346.002L95.0645 362.477C94.8557 362.514 94.6445 362.449 94.4974 362.296L51.2794 318.521C51.0419 318.279 51.031 317.898 51.2524 317.646L103.522 257.394C103.62 257.285 103.752 257.201 103.899 257.179L199.393 240.706C199.601 240.669 199.813 240.734 199.96 240.887L243.179 284.652C243.417 284.893 243.428 285.275 243.206 285.526L190.929 345.786C190.85 345.873 190.753 345.941 190.642 345.977L190.639 345.983ZM95.1786 361.151L190.103 344.775L241.838 285.138L199.275 242.038L104.34 258.412L52.6165 318.035L95.1832 361.149L95.1786 361.151Z" fill="#343942"/>
<path d="M192.493 249.422L229.915 287.319L184.646 339.5L101.965 353.768L64.5384 315.858L109.805 263.687L192.493 249.422Z" fill="#F2BD2A"/>
<path d="M184.846 340.113C184.818 340.122 184.785 340.133 184.754 340.132L102.073 354.4C101.864 354.437 101.653 354.372 101.506 354.219L64.0793 316.309C63.8418 316.068 63.8309 315.686 64.0523 315.434L109.313 263.26C109.411 263.151 109.539 263.069 109.69 263.045L192.382 248.78C192.591 248.743 192.802 248.808 192.949 248.96L230.372 286.857C230.609 287.098 230.62 287.48 230.399 287.731L185.13 339.913C185.051 340 184.954 340.068 184.843 340.104L184.846 340.113ZM102.192 353.072L184.313 338.899L229.041 287.345L192.274 250.109L110.141 264.276L65.4179 315.828L102.187 353.074L102.192 353.072Z" fill="#343942"/>
<path d="M381.427 312.423L391.529 343.854L348.304 300.075L338.203 268.644L381.427 312.423Z" fill="#F2BD2A"/>
<path d="M391.728 344.468C391.5 344.541 391.245 344.485 391.069 344.306L347.85 300.526C347.779 300.451 347.726 300.366 347.694 300.268L337.593 268.837C337.501 268.554 337.616 268.244 337.874 268.089C338.125 267.93 338.457 267.971 338.665 268.186L381.889 311.965C381.96 312.04 382.013 312.125 382.045 312.223L392.147 343.654C392.239 343.937 392.123 344.247 391.866 344.402C391.824 344.431 391.779 344.451 391.732 344.466L391.728 344.468ZM348.876 299.731L390.088 341.471L380.863 312.76L339.651 271.02L348.876 299.731Z" fill="#343942"/>
<path d="M476.905 295.95L487.006 327.381L391.528 343.854L381.427 312.423L476.905 295.95Z" fill="#F2BD2A"/>
<path d="M487.206 327.995C487.178 328.004 487.145 328.015 487.114 328.014L391.632 344.489C391.316 344.545 391.008 344.357 390.909 344.051L380.807 312.62C380.75 312.443 380.775 312.251 380.87 312.086C380.967 311.926 381.132 311.816 381.313 311.788L476.791 295.315C477.107 295.259 477.414 295.447 477.514 295.753L487.615 327.184C487.673 327.361 487.648 327.554 487.552 327.718C487.473 327.852 487.345 327.95 487.201 327.996L487.206 327.995ZM391.968 343.121L486.167 326.868L476.464 296.68L382.265 312.933L391.964 343.123L391.968 343.121Z" fill="#343942"/>
<path d="M529.187 235.689L539.289 267.12L487.007 327.381L476.905 295.95L529.187 235.689Z" fill="#F2BD2A"/>
<path d="M487.206 327.995C487.103 328.028 486.988 328.035 486.878 328.014C486.647 327.966 486.464 327.799 486.392 327.576L476.29 296.145C476.221 295.931 476.268 295.695 476.419 295.528L528.701 235.267C528.853 235.089 529.09 235.012 529.316 235.057C529.547 235.105 529.729 235.272 529.802 235.495L539.903 266.926C539.973 267.14 539.926 267.376 539.775 267.543L487.493 327.804C487.415 327.896 487.317 327.959 487.206 327.995ZM477.632 296.1L487.272 326.094L538.562 266.971L528.922 236.977L477.632 296.1Z" fill="#343942"/>
<path d="M485.967 191.924L529.187 235.689L476.905 295.95L381.427 312.423L338.203 268.644L390.478 208.396L485.967 191.924Z" fill="white"/>
<path d="M477.104 296.564C477.076 296.573 477.044 296.583 477.013 296.583L381.534 313.057C381.326 313.093 381.114 313.028 380.967 312.876L337.748 269.095C337.51 268.854 337.499 268.472 337.721 268.221L389.99 207.969C390.087 207.855 390.216 207.777 390.367 207.754L485.861 191.281C486.07 191.244 486.281 191.309 486.428 191.461L529.648 235.226C529.885 235.468 529.896 235.849 529.675 236.101L477.393 296.362C477.313 296.45 477.217 296.517 477.106 296.553L477.104 296.564ZM381.649 311.73L476.568 295.356L528.308 235.718L485.745 192.618L390.81 208.992L339.082 268.616L381.649 311.73Z" fill="#343942"/>
<path d="M478.964 200.001L516.386 237.897L471.112 290.08L388.436 304.346L351.009 266.436L396.271 214.266L478.964 200.001Z" fill="#F2BD2A"/>
<path d="M471.311 290.694C471.283 290.703 471.251 290.713 471.22 290.713L388.539 304.98C388.33 305.017 388.119 304.952 387.972 304.8L350.545 266.89C350.307 266.648 350.296 266.267 350.518 266.015L395.783 213.839C395.88 213.726 396.013 213.646 396.16 213.624L478.848 199.36C479.057 199.323 479.268 199.388 479.415 199.541L516.837 237.437C517.075 237.678 517.086 238.06 516.864 238.312L471.596 290.494C471.516 290.581 471.42 290.648 471.308 290.684L471.311 290.694ZM388.653 303.654L470.774 289.481L515.502 237.927L478.735 200.691L396.606 214.856L351.882 266.404L388.651 303.65L388.653 303.654Z" fill="#343942"/>
<path d="M233.674 389.151L243.776 420.581L200.552 376.803L190.45 345.372L233.674 389.151Z" fill="#343942"/>
<path d="M243.975 421.195C243.747 421.269 243.493 421.213 243.317 421.034L200.097 377.253C200.027 377.178 199.973 377.093 199.942 376.995L189.84 345.565C189.748 345.281 189.863 344.972 190.121 344.816C190.366 344.654 190.7 344.7 190.913 344.913L234.137 388.692C234.207 388.767 234.261 388.853 234.292 388.95L244.394 420.381C244.486 420.664 244.371 420.974 244.113 421.129C244.071 421.159 244.026 421.178 243.98 421.193L243.975 421.195ZM201.123 376.458L242.335 418.199L233.111 389.488L191.899 347.747L201.123 376.458Z" fill="#343942"/>
<path d="M329.156 372.672L339.253 404.104L243.776 420.582L233.674 389.151L329.156 372.672Z" fill="#F2BD2A"/>
<path d="M339.453 404.722C339.426 404.731 339.393 404.741 339.362 404.741L243.879 421.216C243.564 421.272 243.256 421.084 243.157 420.777L233.055 389.347C232.998 389.17 233.023 388.977 233.118 388.813C233.215 388.653 233.38 388.543 233.561 388.515L329.044 372.04C329.359 371.984 329.667 372.172 329.766 372.478L339.868 403.909C339.925 404.086 339.9 404.279 339.805 404.443C339.725 404.577 339.597 404.675 339.453 404.722ZM244.216 419.848L338.415 403.595L328.716 373.405L234.517 389.658L244.216 419.848Z" fill="#343942"/>
<path d="M381.435 312.416L391.537 343.846L339.253 404.103L329.156 372.671L381.435 312.416Z" fill="#F2BD2A"/>
<path d="M339.453 404.721C339.351 404.754 339.235 404.761 339.126 404.74C338.894 404.692 338.712 404.525 338.64 404.302L328.538 372.872C328.469 372.658 328.515 372.422 328.667 372.255L380.944 311.995C381.097 311.817 381.334 311.74 381.559 311.785C381.79 311.833 381.973 312 382.045 312.223L392.147 343.654C392.216 343.868 392.169 344.104 392.018 344.271L339.736 404.532C339.658 404.624 339.56 404.687 339.449 404.723L339.453 404.721ZM329.879 372.827L339.52 402.82L390.81 343.697L381.17 313.704L329.879 372.827Z" fill="#343942"/>
<path d="M338.219 268.649L381.434 312.416L329.156 372.671L233.674 389.15L190.45 345.371L242.726 285.122L338.219 268.649Z" fill="white"/>
<path d="M329.357 373.289C329.329 373.298 329.296 373.309 329.265 373.308L233.782 389.783C233.574 389.82 233.362 389.755 233.215 389.602L189.991 345.823C189.754 345.582 189.743 345.2 189.964 344.949L242.234 284.697C242.332 284.588 242.464 284.504 242.611 284.482L338.104 268.009C338.313 267.972 338.524 268.037 338.671 268.189L381.891 311.954C382.129 312.196 382.14 312.577 381.918 312.829L329.641 373.089C329.561 373.176 329.465 373.243 329.354 373.28L329.357 373.289ZM233.896 388.457L328.821 372.081L380.556 312.444L337.993 269.344L243.058 285.718L191.33 345.343L233.896 388.457Z" fill="#343942"/>
<path d="M331.21 276.722L368.633 314.623L323.36 366.806L240.683 381.072L203.257 343.162L248.517 290.988L331.21 276.722Z" fill="#F2BD2A"/>
<path d="M323.557 367.416C323.53 367.425 323.497 367.435 323.466 367.435L240.785 381.702C240.576 381.739 240.363 381.67 240.218 381.522L202.791 343.612C202.553 343.37 202.543 342.989 202.764 342.737L248.029 290.561C248.128 290.453 248.255 290.37 248.407 290.347L331.094 276.082C331.303 276.046 331.514 276.111 331.661 276.263L369.083 314.159C369.321 314.401 369.332 314.782 369.11 315.034L323.842 367.216C323.762 367.303 323.666 367.37 323.554 367.407L323.557 367.416ZM240.899 380.376L323.02 366.203L367.748 314.649L330.982 277.413L248.853 291.578L204.128 343.127L240.897 380.372L240.899 380.376Z" fill="#343942"/>
</svg>
