<svg width="324" height="321" viewBox="0 0 324 321" fill="none" xmlns="http://www.w3.org/2000/svg">
    <path opacity=".4" d="M211.64 318.426C261.182 310.775 352.662 266.028 322.252 148.247C284.239 1.02234 168.093 193.666 149.982 209.347C131.87 225.028 93.6242 236.388 76.0294 220.36C58.4346 204.332 45.2742 175.689 90.2487 140.71C135.223 105.73 149.679 83.6461 148.318 66.238C146.957 48.8298 142.281 33.0123 128.549 25.0355C114.817 17.0586 94.5294 22.1319 81.6636 47.5315C68.7978 72.931 68.0373 90.7745 42.4442 104.219C16.8511 117.664 -1.57386 80.4778 6.8215 55.4754C13.5378 35.4734 6.75903 11.2263 2.53012 1.60296" stroke="#99b2e0" stroke-opacity="0.8" stroke-width="4" stroke-dasharray="8 8"/>
</svg>
